<mxfile host="app.diagrams.net" modified="2024-04-17T19:10:01.942Z" agent="Mozilla/5.0 (Windows NT 10.0; Win64; x64) AppleWebKit/537.36 (KHTML, like Gecko) Chrome/123.0.0.0 Safari/537.36" etag="QRniAMVkSW8uuHtda49s" version="24.2.5" type="device">
  <diagram name="PÃ¡gina-1" id="Ma0NDrSQSMu0ASet-JDi">
    <mxGraphModel dx="1354" dy="638" grid="1" gridSize="10" guides="1" tooltips="1" connect="1" arrows="1" fold="1" page="1" pageScale="1" pageWidth="827" pageHeight="1169" math="0" shadow="0">
      <root>
        <mxCell id="0" />
        <mxCell id="1" parent="0" />
        <mxCell id="AjG1yNZ2IDXqtgDJ91u_-1" value="" style="verticalLabelPosition=bottom;verticalAlign=top;html=1;shadow=0;dashed=0;strokeWidth=1;shape=mxgraph.android.phone2;strokeColor=#c0c0c0;" vertex="1" parent="1">
          <mxGeometry x="50" y="40" width="200" height="390" as="geometry" />
        </mxCell>
        <mxCell id="AjG1yNZ2IDXqtgDJ91u_-2" value="" style="rounded=0;whiteSpace=wrap;html=1;" vertex="1" parent="1">
          <mxGeometry x="60" y="70" width="180" height="70" as="geometry" />
        </mxCell>
        <mxCell id="AjG1yNZ2IDXqtgDJ91u_-3" value="" style="sketch=0;outlineConnect=0;fontColor=#232F3E;gradientColor=none;fillColor=#ED7100;strokeColor=none;dashed=0;verticalLabelPosition=bottom;verticalAlign=top;align=center;html=1;fontSize=12;fontStyle=0;aspect=fixed;pointerEvents=1;shape=mxgraph.aws4.container_registry_image;" vertex="1" parent="1">
          <mxGeometry x="70" y="81" width="48" height="48" as="geometry" />
        </mxCell>
        <mxCell id="AjG1yNZ2IDXqtgDJ91u_-4" value="" style="line;strokeWidth=2;html=1;" vertex="1" parent="1">
          <mxGeometry x="200" y="90" width="10" height="10" as="geometry" />
        </mxCell>
        <mxCell id="AjG1yNZ2IDXqtgDJ91u_-6" value="" style="line;strokeWidth=2;html=1;" vertex="1" parent="1">
          <mxGeometry x="220" y="90" width="10" height="10" as="geometry" />
        </mxCell>
        <mxCell id="AjG1yNZ2IDXqtgDJ91u_-7" value="" style="line;strokeWidth=2;html=1;" vertex="1" parent="1">
          <mxGeometry x="200" y="100" width="30" height="10" as="geometry" />
        </mxCell>
        <mxCell id="AjG1yNZ2IDXqtgDJ91u_-8" value="" style="line;strokeWidth=2;html=1;" vertex="1" parent="1">
          <mxGeometry x="200" y="111" width="10" height="10" as="geometry" />
        </mxCell>
        <mxCell id="AjG1yNZ2IDXqtgDJ91u_-9" value="" style="line;strokeWidth=2;html=1;" vertex="1" parent="1">
          <mxGeometry x="220" y="111" width="10" height="10" as="geometry" />
        </mxCell>
      </root>
    </mxGraphModel>
  </diagram>
</mxfile>
